<svg width="280" height="47" viewBox="0 0 280 47" fill="none" xmlns="http://www.w3.org/2000/svg">
<g clip-path="url(#clip0_1_229)">
<path d="M0.00469971 42.0734H9.40827L12.5589 33.9996H29.4458L26.59 26.4173H15.5619L21.224 12.0414L17.1869 1.20997L0.00469971 42.0734Z" fill="#1A4E9B"/>
<path d="M34.3195 42.0734H44.0184L26.7372 0.422356H18.762L34.3195 42.0734ZM57.6561 8.34856L57.558 42.0734H48.4496V0.422356H57.6561V8.34856ZM86.8024 21.2479C86.8024 28.9445 83.2503 35.6858 76.4142 39.4147C73.1646 41.1873 69.4232 42.0734 65.2384 42.0734H59.5277V34.1467H65.8289C70.302 34.1467 73.9076 31.9155 76.0204 27.9931C77.0051 26.0235 77.4974 23.808 77.4974 21.2973C77.4974 14.1279 72.8147 8.34856 65.3861 8.34856H59.5277V0.422356H65.5827C69.6689 0.422356 73.3613 1.30845 76.5614 3.08065C83.3574 6.78765 86.8024 13.629 86.8024 21.2479ZM120.232 0.422356L120.182 8.20095H100.341V42.0734H91.2333V0.422356H120.232H120.232ZM118.557 18.442V26.3191H102.212V18.442H118.557Z" fill="#2B2A29"/>
<path d="M172.742 0.421951H174.593L180.304 15.9082H177.959L173.665 3.414L169.376 15.9082H167.031L172.742 0.421951H172.742ZM169.664 10.4444H177.81V12.509H169.664V10.4444ZM184.604 13.0544C184.604 13.3237 184.666 13.5305 184.782 13.6761C184.899 13.8217 185.063 13.8943 185.277 13.8943H186.298V15.9625H185.022C184.197 15.9625 183.561 15.7046 183.11 15.1952C182.659 14.683 182.434 13.9632 182.434 13.0325V0.421951H184.604V13.0544ZM190.919 13.0544C190.919 13.3237 190.98 13.5305 191.097 13.6761C191.213 13.8217 191.377 13.8943 191.591 13.8943H192.612V15.9625H191.336C190.511 15.9625 189.875 15.7046 189.424 15.1952C188.973 14.683 188.748 13.9632 188.748 13.0325V0.421951H190.919V13.0544ZM195.062 0.421951H197.233V2.59603H195.062V0.421951ZM195.062 4.85365H197.233V15.9082H195.062V4.85365ZM206.778 8.89968C206.778 8.17621 206.582 7.61251 206.197 7.21306C205.808 6.8132 205.262 6.60962 204.55 6.60962C204.11 6.60962 203.682 6.67897 203.256 6.8132C202.834 6.94743 202.46 7.13682 202.132 7.37649L200.548 6.28965C200.966 5.78801 201.518 5.39545 202.202 5.11563C202.889 4.8354 203.648 4.69387 204.488 4.69387C205.404 4.69387 206.186 4.85365 206.84 5.17727C207.494 5.50089 207.992 5.96969 208.331 6.58448C208.673 7.19846 208.843 7.94019 208.843 8.8056V15.9086H206.779V8.90009L206.778 8.89968ZM204.07 16.0683C202.707 16.0683 201.689 15.7849 201.016 15.2216C200.34 14.6583 200.003 13.8002 200.003 12.6481C200.003 11.5576 200.311 10.736 200.929 10.1905C201.547 9.64182 202.482 9.3693 203.732 9.3693H206.873L207.022 11.1176H203.743C203.172 11.1176 202.75 11.2413 202.47 11.4959C202.187 11.747 202.049 12.1318 202.049 12.6481C202.049 13.2113 202.234 13.6258 202.609 13.8947C202.979 14.1639 203.547 14.3018 204.306 14.3018C205.135 14.3018 205.757 14.211 206.163 14.033C206.571 13.8582 206.778 13.5784 206.778 13.2036L207 14.7597C206.807 15.0578 206.571 15.3011 206.291 15.4941C206.011 15.6831 205.688 15.8291 205.317 15.9232C204.95 16.0213 204.531 16.0688 204.07 16.0688V16.0683ZM212.144 4.85365H214.314V15.9082H212.144V4.85365ZM218.854 9.2083C218.854 8.42683 218.651 7.82339 218.244 7.39798C217.84 6.97298 217.273 6.75805 216.542 6.75805C215.829 6.75805 215.284 6.94703 214.895 7.32539C214.51 7.70011 214.314 8.23055 214.314 8.91023L214.092 6.77995C214.434 6.11487 214.878 5.59862 215.43 5.23485C215.979 4.87514 216.586 4.69346 217.254 4.69346C218.454 4.69346 219.381 5.08602 220.039 5.87114C220.697 6.65666 221.024 7.7654 221.024 9.19775V15.9082H218.854V9.2083H218.854ZM228.79 16.0679C227.782 16.0679 226.921 15.879 226.208 15.5047C225.496 15.1267 224.951 14.5812 224.573 13.8614C224.198 13.1456 224.009 12.2802 224.009 11.2664V9.44473C224.009 8.44183 224.198 7.58778 224.573 6.87849C224.951 6.16556 225.496 5.62417 226.208 5.25351C226.921 4.87879 227.782 4.69387 228.79 4.69387C229.367 4.69387 229.906 4.76281 230.414 4.9011C230.923 5.03939 231.377 5.23932 231.784 5.50454C232.188 5.76611 232.526 6.08608 232.795 6.46038L231.228 7.8676C230.916 7.51113 230.552 7.23861 230.131 7.04598C229.713 6.857 229.276 6.75886 228.822 6.75886C227.986 6.75886 227.335 6.99488 226.873 7.46409C226.412 7.93329 226.183 8.59107 226.183 9.44513V11.2668C226.183 12.1391 226.412 12.8115 226.87 13.288C227.324 13.7637 227.978 14.0042 228.822 14.0042C229.283 14.0042 229.723 13.8987 230.141 13.6952C230.563 13.4879 230.923 13.1972 231.228 12.8192L232.795 14.3314C232.519 14.7021 232.177 15.0152 231.773 15.2767C231.366 15.5347 230.912 15.7313 230.403 15.866C229.897 16.0006 229.36 16.0692 228.789 16.0692L228.79 16.0679ZM239.717 16.0679C238.695 16.0679 237.819 15.8753 237.095 15.4933C236.372 15.108 235.82 14.5447 235.442 13.803C235.06 13.0613 234.871 12.1671 234.871 11.1163V9.86973C234.871 8.77559 235.053 7.84083 235.42 7.06707C235.783 6.2929 236.314 5.70406 237.012 5.30015C237.706 4.89664 238.546 4.69306 239.524 4.69306C240.447 4.69306 241.236 4.92543 241.89 5.38369C242.541 5.84559 243.039 6.51432 243.384 7.38663C243.73 8.25934 243.901 9.31009 243.901 10.5312V11.2546H236.449V9.50596H241.836C241.77 8.60445 241.538 7.90288 241.138 7.40488C240.738 6.90323 240.2 6.65261 239.524 6.65261C238.702 6.65261 238.063 6.92189 237.612 7.46328C237.161 8.00142 236.936 8.76505 236.936 9.75334V11.1565C236.936 12.0726 237.18 12.7778 237.66 13.2649C238.143 13.7556 238.83 14.003 239.717 14.003C240.157 14.003 240.593 13.9117 241.026 13.7337C241.458 13.5589 241.847 13.3087 242.188 12.9883L243.614 14.417C243.068 14.9406 242.454 15.3477 241.77 15.6352C241.091 15.9219 240.404 16.0675 239.717 16.0675V16.0679ZM169.993 40.0205H173.498C174.639 40.0205 175.526 39.7225 176.152 39.1296C176.78 38.5371 177.097 37.7009 177.097 36.6213V32.0627C177.097 30.9832 176.78 30.1469 176.152 29.5545C175.526 28.962 174.639 28.6675 173.498 28.6675H169.993V26.5989H173.432C174.675 26.5989 175.737 26.8175 176.617 27.2498C177.496 27.6825 178.168 28.3151 178.63 29.1441C179.092 29.9766 179.321 30.9763 179.321 32.1503V36.5378C179.321 37.7086 179.092 38.7082 178.63 39.5408C178.168 40.3697 177.496 41.0023 176.609 41.4346C175.726 41.8673 174.664 42.0855 173.42 42.0855H169.993V40.0209L169.993 40.0205ZM168.521 26.5989H170.695V42.0851H168.521V26.5989ZM182.626 26.5989H184.796V28.773H182.626V26.5989ZM182.626 31.0306H184.796V42.0851H182.626V31.0306ZM191.804 46.5785C190.975 46.5785 190.23 46.426 189.576 46.1166C188.918 45.8079 188.409 45.3712 188.045 44.8115L189.514 43.4814C189.801 43.8703 190.139 44.172 190.532 44.3861C190.928 44.5974 191.339 44.7061 191.771 44.7061C192.604 44.7061 193.248 44.477 193.702 44.0191C194.156 43.5613 194.382 42.914 194.382 42.0742V31.0306H196.556V41.7546C196.556 42.7684 196.37 43.6412 195.996 44.3646C195.625 45.0881 195.083 45.6405 194.371 46.0152C193.662 46.3935 192.808 46.5785 191.804 46.5785ZM191.604 42.2782C190.794 42.2782 190.103 42.0997 189.532 41.751C188.961 41.3985 188.525 40.8859 188.227 40.2099C187.929 39.5371 187.78 38.7265 187.78 37.7816V35.3463C187.78 34.3941 187.926 33.5794 188.216 32.907C188.507 32.2314 188.933 31.7184 189.489 31.366C190.045 31.0168 190.713 30.8388 191.495 30.8388C192.149 30.8388 192.749 31.0095 193.291 31.3518C193.832 31.6933 194.272 32.1698 194.607 32.7874L194.382 35.0446C194.382 34.5795 194.298 34.1759 194.127 33.8414C193.956 33.5109 193.709 33.2562 193.386 33.0818C193.066 32.907 192.673 32.8202 192.212 32.8202C191.492 32.8202 190.94 33.0453 190.544 33.4926C190.151 33.9395 189.955 34.5685 189.955 35.3759V37.782C189.955 38.5853 190.151 39.2034 190.544 39.6434C190.94 40.0797 191.492 40.2975 192.212 40.2975C192.674 40.2975 193.066 40.2067 193.386 40.025C193.71 39.8433 193.956 39.5813 194.127 39.2435C194.298 38.9021 194.382 38.4945 194.382 38.0188L194.531 40.3486C194.312 40.8977 193.953 41.356 193.451 41.7226C192.949 42.0932 192.335 42.279 191.604 42.279V42.2782ZM199.856 26.5993H202.027V28.7734H199.856V26.5993ZM199.856 31.031H202.027V42.0855H199.856V31.031ZM208.206 42.1403C207.312 42.1403 206.658 41.8929 206.24 41.3985C205.825 40.9042 205.618 40.1771 205.618 39.2099V27.8139H207.792V39.2318C207.792 39.501 207.843 39.7079 207.948 39.8535C208.057 39.999 208.213 40.0716 208.417 40.0716H209.46V42.1403H208.206H208.206ZM204.477 31.031H209.46V32.9906H204.477V31.031ZM218.687 35.077C218.687 34.3536 218.491 33.7903 218.105 33.3904C217.716 32.9906 217.171 32.787 216.459 32.787C216.018 32.787 215.59 32.8563 215.164 32.9906C214.743 33.1252 214.368 33.3142 214.041 33.5539L212.456 32.4674C212.874 31.9654 213.427 31.5732 214.11 31.2934C214.797 31.0132 215.557 30.8716 216.397 30.8716C217.313 30.8716 218.094 31.0314 218.749 31.355C219.403 31.6787 219.901 32.1475 220.239 32.7622C220.581 33.3762 220.752 34.118 220.752 34.9834V42.0863H218.687V35.0779L218.687 35.077ZM215.979 42.2457C214.616 42.2457 213.597 41.9622 212.925 41.3989C212.249 40.8357 211.911 39.9775 211.911 38.8254C211.911 37.7349 212.22 36.9133 212.838 36.3679C213.456 35.8192 214.39 35.5467 215.64 35.5467H218.781L218.93 37.2949H215.651C215.081 37.2949 214.659 37.4186 214.379 37.6733C214.096 37.9243 213.957 38.3092 213.957 38.8254C213.957 39.3887 214.143 39.8032 214.517 40.072C214.888 40.3413 215.455 40.4796 216.215 40.4796C217.044 40.4796 217.665 40.3884 218.072 40.2103C218.48 40.0355 218.686 39.7557 218.686 39.381L218.908 40.9375C218.716 41.2351 218.479 41.4784 218.199 41.6715C217.92 41.8609 217.596 42.0064 217.225 42.1005C216.858 42.1987 216.44 42.2461 215.979 42.2461V42.2457ZM226.223 39.2322C226.223 39.5014 226.284 39.7083 226.401 39.8539C226.517 39.9994 226.681 40.072 226.895 40.072H227.916V42.1407H226.641C225.816 42.1407 225.179 41.8823 224.729 41.3734C224.278 40.8608 224.052 40.141 224.052 39.2103V26.5997H226.223V39.2322ZM234.304 26.5997H236.477V42.0859H234.304V26.5997ZM235.369 33.5032H242.879V35.5681H235.369V33.5032ZM235.369 26.5997H244.049V28.6684H235.369V26.5997ZM252.952 31.0314H255.111V42.0859H252.952V31.0314ZM248.455 37.7528C248.455 38.5233 248.655 39.1231 249.048 39.5448C249.44 39.9666 249.996 40.1811 250.716 40.1811C251.425 40.1811 251.974 39.9921 252.367 39.6138C252.756 39.2391 252.952 38.7013 252.952 38.007L253.101 40.319C252.872 40.8645 252.504 41.3223 251.992 41.693C251.48 42.0604 250.854 42.2453 250.109 42.2453C248.888 42.2453 247.943 41.8527 247.281 41.0676C246.616 40.2821 246.284 39.1774 246.284 37.752V31.0306H248.455V37.752L248.455 37.7528ZM258.416 31.0314H260.586V42.0859H258.416V31.0314ZM265.126 35.3861C265.126 34.6046 264.923 34.0012 264.516 33.5758C264.112 33.1507 263.545 32.9358 262.814 32.9358C262.102 32.9358 261.556 33.1252 261.168 33.5032C260.782 33.8779 260.586 34.4083 260.586 35.088L260.364 32.9577C260.706 32.2926 261.15 31.7764 261.702 31.4126C262.251 31.0529 262.858 30.8712 263.527 30.8712C264.727 30.8712 265.653 31.2638 266.311 32.0489C266.969 32.8344 267.296 33.9432 267.296 35.3755V42.0859H265.126V35.3861H265.126ZM276.882 26.5997H279.057V42.0859H276.882V26.5997ZM274.105 42.2786C273.295 42.2786 272.604 42.1001 272.033 41.7514C271.463 41.3989 271.026 40.8864 270.728 40.2103C270.43 39.5375 270.281 38.7269 270.281 37.782V35.3467C270.281 34.3945 270.427 33.5798 270.717 32.9074C271.008 32.2318 271.433 31.7188 271.99 31.3664C272.546 31.0172 273.214 30.8392 273.996 30.8392C274.651 30.8392 275.25 31.0099 275.792 31.3522C276.333 31.6937 276.773 32.1702 277.108 32.7878L276.882 35.045C276.882 34.5799 276.799 34.1763 276.628 33.8418C276.457 33.5113 276.21 33.2566 275.887 33.0822C275.567 32.9074 275.174 32.8206 274.713 32.8206C273.993 32.8206 273.441 33.0457 273.044 33.493C272.652 33.9399 272.456 34.5689 272.456 35.3763V37.7824C272.456 38.5857 272.652 39.2038 273.044 39.6438C273.441 40.0801 273.993 40.2979 274.713 40.2979C275.175 40.2979 275.567 40.2071 275.887 40.0254C276.211 39.8437 276.457 39.5817 276.628 39.2439C276.799 38.9025 276.882 38.4949 276.882 38.0192L277.032 40.349C276.814 40.8981 276.453 41.3564 275.952 41.723C275.45 42.0936 274.836 42.2794 274.106 42.2794L274.105 42.2786Z" fill="#2B2A29"/>
<path d="M133.059 42.0734H131.358L145.559 0.422356H147.249L133.059 42.0734Z" fill="#1A4E9B"/>
</g>
<defs>
<clipPath id="clip0_1_229">
<rect width="279.053" height="46.1562" fill="white" transform="translate(0.00469971 0.421875)"/>
</clipPath>
</defs>
</svg>
